<svg width="160" height="48" viewBox="0 0 160 48" fill="none" xmlns="http://www.w3.org/2000/svg">
<path d="M24 47C10.7467 47 0 36.2533 0 23H24V47Z" fill="#703BF7"/>
<path d="M0 0C13.2533 0 24 10.7467 24 24H0V0Z" fill="#703BF7"/>
<path d="M24 47C37.2533 47 48 36.2533 48 23H24V47Z" fill="#703BF7"/>
<path d="M48 24C48 10.7467 37.2533 0 24 0V24H48Z" fill="#703BF7"/>
<path d="M156.82 34.8603V26.8536C156.82 25.9286 156.522 25.1675 155.924 24.5701C155.346 23.9727 154.595 23.674 153.67 23.674C153.053 23.674 152.504 23.8089 152.022 24.0787C151.54 24.3485 151.165 24.7242 150.895 25.206C150.625 25.6877 150.49 26.237 150.49 26.8536L149.247 26.1599C149.247 25.1 149.478 24.1654 149.941 23.3561C150.403 22.5274 151.039 21.8819 151.849 21.4194C152.677 20.9377 153.602 20.6968 154.624 20.6968C155.664 20.6968 156.589 20.9666 157.398 21.5061C158.208 22.0264 158.844 22.7105 159.306 23.5584C159.769 24.387 160 25.2542 160 26.1599V34.8603H156.82ZM147.311 34.8603V20.9858H150.49V34.8603H147.311Z" fill="white"/>
<path d="M140.565 34.8604V20.9859H143.745V34.8604H140.565ZM142.155 18.4422C141.615 18.4422 141.162 18.2591 140.796 17.893C140.449 17.5269 140.276 17.074 140.276 16.5345C140.276 15.9949 140.449 15.542 140.796 15.1759C141.162 14.8098 141.615 14.6267 142.155 14.6267C142.714 14.6267 143.166 14.8098 143.513 15.1759C143.86 15.542 144.034 15.9949 144.034 16.5345C144.034 17.074 143.86 17.5269 143.513 17.893C143.166 18.2591 142.714 18.4422 142.155 18.4422Z" fill="white"/>
<path d="M131.541 35.1494C130.154 35.1494 128.901 34.8411 127.783 34.2244C126.685 33.5885 125.808 32.7214 125.153 31.623C124.517 30.5246 124.199 29.2913 124.199 27.9231C124.199 26.5549 124.517 25.3313 125.153 24.2521C125.789 23.1537 126.647 22.2866 127.726 21.6506C128.824 21.0147 130.038 20.6968 131.368 20.6968C132.659 20.6968 133.796 20.9955 134.779 21.5928C135.781 22.1902 136.561 23.0092 137.12 24.0498C137.698 25.0904 137.987 26.2755 137.987 27.6051C137.987 27.8364 137.968 28.0773 137.929 28.3278C137.91 28.559 137.871 28.8192 137.814 29.1082H126.425V26.5067H136.166L134.981 27.5473C134.942 26.6994 134.779 25.9864 134.489 25.4083C134.2 24.8302 133.786 24.387 133.247 24.0787C132.726 23.7704 132.081 23.6162 131.31 23.6162C130.501 23.6162 129.797 23.7896 129.2 24.1365C128.602 24.4834 128.14 24.9748 127.812 25.6107C127.485 26.2273 127.321 26.9692 127.321 27.8364C127.321 28.7035 127.494 29.4647 127.841 30.1199C128.188 30.7751 128.68 31.2857 129.315 31.6519C129.951 31.9987 130.684 32.1722 131.512 32.1722C132.225 32.1722 132.88 32.0469 133.478 31.7964C134.094 31.5459 134.615 31.1797 135.039 30.698L137.062 32.7503C136.388 33.5403 135.569 34.1377 134.605 34.5424C133.642 34.9471 132.62 35.1494 131.541 35.1494Z" fill="white"/>
<path d="M116.677 34.8604V15.2048H119.856V34.8604H116.677ZM113.353 23.8764V20.9859H123.18V23.8764H113.353Z" fill="white"/>
<path d="M103.609 35.1494C102.357 35.1494 101.22 34.8314 100.198 34.1955C99.1964 33.5596 98.3967 32.7021 97.7993 31.623C97.2212 30.5246 96.9321 29.3009 96.9321 27.952C96.9321 26.5838 97.2212 25.3602 97.7993 24.281C98.3967 23.1826 99.1964 22.3155 100.198 21.6796C101.22 21.0244 102.357 20.6968 103.609 20.6968C104.669 20.6968 105.604 20.928 106.413 21.3905C107.242 21.8337 107.897 22.4504 108.379 23.2404C108.86 24.0305 109.101 24.9266 109.101 25.9286V29.9176C109.101 30.9196 108.86 31.8157 108.379 32.6057C107.916 33.3958 107.271 34.0221 106.442 34.4846C105.613 34.9278 104.669 35.1494 103.609 35.1494ZM104.13 32.1433C105.305 32.1433 106.249 31.7482 106.962 30.9581C107.695 30.1681 108.061 29.1564 108.061 27.9231C108.061 27.0945 107.897 26.3622 107.569 25.7263C107.242 25.0904 106.779 24.599 106.182 24.2521C105.604 23.886 104.92 23.7029 104.13 23.7029C103.359 23.7029 102.675 23.886 102.077 24.2521C101.499 24.599 101.037 25.0904 100.69 25.7263C100.362 26.3622 100.198 27.0945 100.198 27.9231C100.198 28.7517 100.362 29.484 100.69 30.1199C101.037 30.7558 101.499 31.2568 102.077 31.623C102.675 31.9698 103.359 32.1433 104.13 32.1433ZM107.858 34.8603V31.1316L108.408 27.7497L107.858 24.3966V20.9858H111.038V34.8603H107.858Z" fill="white"/>
<path d="M89.3798 34.8604V15.2048H92.5593V34.8604H89.3798ZM86.0557 23.8764V20.9859H95.8834V23.8764H86.0557Z" fill="white"/>
<path d="M79.3879 35.1494C78.6171 35.1494 77.8752 35.0531 77.1622 34.8603C76.4492 34.6484 75.794 34.3593 75.1966 33.9932C74.5992 33.6078 74.079 33.1453 73.6357 32.6057L75.6591 30.5824C76.1409 31.1412 76.6901 31.5652 77.3067 31.8542C77.9426 32.124 78.6556 32.2589 79.4457 32.2589C80.1587 32.2589 80.6983 32.1529 81.0644 31.9409C81.4305 31.7289 81.6136 31.4206 81.6136 31.016C81.6136 30.592 81.4402 30.2644 81.0933 30.0332C80.7464 29.8019 80.2936 29.6092 79.7347 29.4551C79.1952 29.2816 78.6171 29.1082 78.0004 28.9348C77.4031 28.7613 76.825 28.5301 76.2661 28.241C75.7266 27.9327 75.2833 27.5184 74.9365 26.9981C74.5896 26.4778 74.4162 25.8034 74.4162 24.9748C74.4162 24.0883 74.6185 23.3272 75.0232 22.6912C75.4471 22.0553 76.0349 21.5639 76.7864 21.2171C77.5572 20.8702 78.4726 20.6968 79.5324 20.6968C80.6501 20.6968 81.6329 20.8991 82.4807 21.3038C83.3479 21.6892 84.0705 22.2769 84.6486 23.067L82.6253 25.0904C82.2206 24.5893 81.7581 24.2136 81.2378 23.9631C80.7175 23.7126 80.1202 23.5873 79.4457 23.5873C78.8098 23.5873 78.3184 23.6837 77.9715 23.8764C77.6247 24.0691 77.4512 24.3485 77.4512 24.7146C77.4512 25.1 77.6247 25.3987 77.9715 25.6107C78.3184 25.8226 78.7616 26.0057 79.3012 26.1599C79.86 26.314 80.4381 26.4875 81.0355 26.6802C81.6521 26.8536 82.2302 27.1041 82.7698 27.4317C83.3286 27.74 83.7815 28.164 84.1283 28.7035C84.4752 29.2238 84.6486 29.9079 84.6486 30.7558C84.6486 32.1047 84.1765 33.1742 83.2323 33.9643C82.288 34.7544 81.0066 35.1494 79.3879 35.1494Z" fill="white"/>
<path d="M58.2339 34.8604V14.6267H61.558V34.8604H58.2339ZM60.5174 34.8604V31.8253H71.8483V34.8604H60.5174ZM60.5174 25.9865V23.067H70.8655V25.9865H60.5174ZM60.5174 17.6618V14.6267H71.7037V17.6618H60.5174Z" fill="white"/>
</svg>
