<svg width="22" height="21" viewBox="0 0 22 21" fill="none" xmlns="http://www.w3.org/2000/svg">
<path d="M9.81193 0.459616C10.2055 -0.153147 11.1011 -0.153147 11.4947 0.459616L14.5337 5.19107C14.6692 5.4019 14.8788 5.55421 15.1212 5.61786L20.5602 7.04604C21.2645 7.23101 21.5413 8.08279 21.0802 8.64646L17.5194 12.9989C17.3607 13.1928 17.2806 13.4392 17.295 13.6894L17.6175 19.3035C17.6592 20.0306 16.9347 20.557 16.2561 20.2926L11.0164 18.2511C10.7829 18.1601 10.5238 18.1601 10.2903 18.2511L5.05057 20.2926C4.37199 20.557 3.64741 20.0306 3.68917 19.3035L4.01163 13.6894C4.02599 13.4392 3.94592 13.1928 3.78725 12.9989L0.226482 8.64646C-0.234667 8.08279 0.0420954 7.23101 0.74649 7.04604L6.18548 5.61786C6.42784 5.55421 6.63748 5.4019 6.7729 5.19107L9.81193 0.459616Z" fill="#FFE600"/>
</svg>
