<svg xmlns="http://www.w3.org/2000/svg" xmlns:xlink="http://www.w3.org/1999/xlink"><defs>
<clipPath id="clip0_122_2009">
<rect width="21.0171" height="21" fill="white" transform="translate(1 2)"/>
</clipPath>

<clipPath id="clip0_122_2005">
<rect width="22" height="17" fill="white" transform="translate(1 4)"/>
</clipPath>

<linearGradient id="paint0_linear_121_1908" x1="6.75" y1="86.5" x2="85.75" y2="-5.5" gradientUnits="userSpaceOnUse">
<stop stop-color="#A685FA"/>
<stop offset="0.323723" stop-color="#A685FA" stop-opacity="0"/>
</linearGradient>
<linearGradient id="paint1_linear_121_1908" x1="81.75" y1="-10.5" x2="6.75" y2="82" gradientUnits="userSpaceOnUse">
<stop stop-color="#A685FA"/>
<stop offset="0.576615" stop-color="#A685FA" stop-opacity="0"/>
</linearGradient>
<linearGradient id="paint2_linear_121_1908" x1="3.25" y1="13.5" x2="71.75" y2="72" gradientUnits="userSpaceOnUse">
<stop stop-color="#A685FA"/>
<stop offset="0.323723" stop-color="#A685FA" stop-opacity="0"/>
</linearGradient>
<linearGradient id="paint3_linear_121_1908" x1="84.25" y1="86" x2="12.25" y2="35" gradientUnits="userSpaceOnUse">
<stop stop-color="#A685FA"/>
<stop offset="0.576615" stop-color="#A685FA" stop-opacity="0"/>
</linearGradient>

<linearGradient id="paint0_linear_121_1892" x1="6.75" y1="86.5" x2="85.75" y2="-5.5" gradientUnits="userSpaceOnUse">
<stop stop-color="#A685FA"/>
<stop offset="0.323723" stop-color="#A685FA" stop-opacity="0"/>
</linearGradient>
<linearGradient id="paint1_linear_121_1892" x1="81.75" y1="-10.5" x2="6.75" y2="82" gradientUnits="userSpaceOnUse">
<stop stop-color="#A685FA"/>
<stop offset="0.576615" stop-color="#A685FA" stop-opacity="0"/>
</linearGradient>
<linearGradient id="paint2_linear_121_1892" x1="3.25" y1="13.5" x2="71.75" y2="72" gradientUnits="userSpaceOnUse">
<stop stop-color="#A685FA"/>
<stop offset="0.323723" stop-color="#A685FA" stop-opacity="0"/>
</linearGradient>
<linearGradient id="paint3_linear_121_1892" x1="84.25" y1="86" x2="12.25" y2="35" gradientUnits="userSpaceOnUse">
<stop stop-color="#A685FA"/>
<stop offset="0.576615" stop-color="#A685FA" stop-opacity="0"/>
</linearGradient>

<linearGradient id="paint0_linear_121_1900" x1="6.75" y1="86.5" x2="85.75" y2="-5.5" gradientUnits="userSpaceOnUse">
<stop stop-color="#A685FA"/>
<stop offset="0.323723" stop-color="#A685FA" stop-opacity="0"/>
</linearGradient>
<linearGradient id="paint1_linear_121_1900" x1="81.75" y1="-10.5" x2="6.75" y2="82" gradientUnits="userSpaceOnUse">
<stop stop-color="#A685FA"/>
<stop offset="0.576615" stop-color="#A685FA" stop-opacity="0"/>
</linearGradient>
<linearGradient id="paint2_linear_121_1900" x1="3.25" y1="13.5" x2="71.75" y2="72" gradientUnits="userSpaceOnUse">
<stop stop-color="#A685FA"/>
<stop offset="0.323723" stop-color="#A685FA" stop-opacity="0"/>
</linearGradient>
<linearGradient id="paint3_linear_121_1900" x1="84.25" y1="86" x2="12.25" y2="35" gradientUnits="userSpaceOnUse">
<stop stop-color="#A685FA"/>
<stop offset="0.576615" stop-color="#A685FA" stop-opacity="0"/>
</linearGradient>

<linearGradient id="paint0_linear_121_1916" x1="6.75" y1="86.5" x2="85.75" y2="-5.5" gradientUnits="userSpaceOnUse">
<stop stop-color="#A685FA"/>
<stop offset="0.323723" stop-color="#A685FA" stop-opacity="0"/>
</linearGradient>
<linearGradient id="paint1_linear_121_1916" x1="81.75" y1="-10.5" x2="6.75" y2="82" gradientUnits="userSpaceOnUse">
<stop stop-color="#A685FA"/>
<stop offset="0.576615" stop-color="#A685FA" stop-opacity="0"/>
</linearGradient>
<linearGradient id="paint2_linear_121_1916" x1="3.25" y1="13.5" x2="71.75" y2="72" gradientUnits="userSpaceOnUse">
<stop stop-color="#A685FA"/>
<stop offset="0.323723" stop-color="#A685FA" stop-opacity="0"/>
</linearGradient>
<linearGradient id="paint3_linear_121_1916" x1="84.25" y1="86" x2="12.25" y2="35" gradientUnits="userSpaceOnUse">
<stop stop-color="#A685FA"/>
<stop offset="0.576615" stop-color="#A685FA" stop-opacity="0"/>
</linearGradient>
</defs><symbol id="arrow-left" viewBox="0 0 30 30">
<path fill-rule="evenodd" clip-rule="evenodd" d="M25.5 15C25.5 15.6213 24.9963 16.125 24.375 16.125L8.41812 16.125L14.6547 22.0641C15.1026 22.4947 15.1166 23.2069 14.6859 23.6548C14.2553 24.1026 13.5431 24.1166 13.0953 23.6859L4.84525 15.8109C4.62466 15.5988 4.5 15.306 4.5 15C4.5 14.694 4.62466 14.4012 4.84525 14.1891L13.0953 6.31406C13.5431 5.88342 14.2553 5.89739 14.6859 6.34525C15.1166 6.79312 15.1026 7.5053 14.6547 7.93594L8.41812 13.875L24.375 13.875C24.9963 13.875 25.5 14.3787 25.5 15Z"/>
</symbol><symbol id="arrow-right" viewBox="0 0 30 30">
<path fill-rule="evenodd" clip-rule="evenodd" d="M4.5 15C4.5 14.3787 5.00368 13.875 5.625 13.875L21.5819 13.875L15.3453 7.93593C14.8974 7.50529 14.8834 6.79312 15.3141 6.34525C15.7447 5.89738 16.4569 5.88342 16.9047 6.31406L25.1547 14.1891C25.3753 14.4012 25.5 14.694 25.5 15C25.5 15.306 25.3753 15.5988 25.1547 15.8109L16.9047 23.6859C16.4569 24.1166 15.7447 24.1026 15.3141 23.6547C14.8834 23.2069 14.8974 22.4947 15.3453 22.0641L21.5819 16.125L5.625 16.125C5.00368 16.125 4.5 15.6213 4.5 15Z"/>
</symbol><symbol id="arrow-up-left" viewBox="0 0 34 34">
<path d="M6.375 27.625L27.625 6.375M27.625 6.375L11.6875 6.375M27.625 6.375V22.3125" stroke-width="2" stroke-linecap="round" stroke-linejoin="round"/>
</symbol><symbol id="bathroom" viewBox="0 0 24 24">
<g clip-path="url(#clip0_122_2009)">
<path d="M2.26946 15.7616H12.11V17.5697H18.2615V15.7655H20.7054C20.8637 17.9158 20.8761 19.8304 18.6707 21.2897C18.6437 21.3075 18.6221 21.3318 18.5623 21.385C18.8335 21.6103 19.1009 21.8329 19.3655 22.0529C19.0082 22.3945 18.7212 22.669 18.3922 22.9842C18.1019 22.6848 17.7879 22.3373 17.4458 22.0207C17.3453 21.9275 17.1673 21.8894 17.0215 21.8802C16.7831 21.8657 16.5414 21.9045 16.301 21.9052C13.1057 21.9071 9.91048 21.9065 6.71457 21.9065C6.56154 21.9065 6.398 21.936 6.25679 21.8933C5.83054 21.7653 5.55994 21.9629 5.30642 22.2684C5.09034 22.5284 4.84405 22.7629 4.61877 23.0007C4.31468 22.6808 4.03949 22.3918 3.73474 22.0707C3.939 21.89 4.19843 21.6602 4.49004 21.4014C4.28906 21.2576 4.13866 21.1577 3.99614 21.0474C2.92821 20.2244 2.3509 19.1329 2.27537 17.7924C2.23793 17.1284 2.2688 16.4604 2.2688 15.7616H2.26946Z"/>
<path d="M2.27554 10.7871C2.27029 10.6682 2.26109 10.5612 2.26109 10.4541C2.26044 8.71363 2.25847 6.97381 2.26109 5.23333C2.26372 3.32078 3.59108 1.98619 5.50101 1.99998C6.14203 2.00458 6.80275 1.99145 7.41882 2.13659C8.5117 2.39471 9.20001 3.15264 9.53235 4.22057C9.59671 4.42811 9.68012 4.5286 9.90803 4.59034C11.194 4.93909 12.0964 6.141 12.1128 7.48216C12.1155 7.69824 12.1128 7.91432 12.1128 8.14879H6.02578C5.73548 6.61389 6.56959 5.02973 8.31335 4.53517C8.15573 3.85014 7.48121 3.27217 6.7732 3.24722C6.23792 3.22817 5.70067 3.2262 5.16539 3.24722C4.24261 3.28334 3.50044 4.13059 3.4965 5.14663C3.48994 6.89762 3.49453 8.64926 3.49453 10.4002C3.49453 10.5198 3.49453 10.6393 3.49453 10.7864H2.27423L2.27554 10.7871Z"/>
<path d="M12.0931 14.5327C11.9644 14.5327 11.8678 14.5327 11.7713 14.5327C8.64366 14.5327 5.5154 14.5334 2.38779 14.5321C1.71459 14.5321 1.23054 14.2135 1.06043 13.6697C0.804289 12.8514 1.38423 12.0632 2.26826 12.0514C3.20877 12.0389 4.14929 12.0481 5.0898 12.0481C7.29922 12.0481 9.50799 12.0481 11.7174 12.0481C11.8356 12.0481 11.9538 12.0481 12.0931 12.0481V14.5321V14.5327Z"/>
<path d="M17.0237 16.3711H13.3634C13.3575 16.2555 13.3477 16.1504 13.3477 16.0453C13.3464 14.7771 13.3464 13.5082 13.3477 12.2399C13.3483 11.3224 13.8494 10.818 14.763 10.8141C15.1019 10.8128 15.4408 10.8055 15.7797 10.816C16.5409 10.8403 17.0381 11.352 17.0401 12.1152C17.044 13.4386 17.0414 14.7613 17.0401 16.0848C17.0401 16.1708 17.0309 16.2562 17.0237 16.3711Z"/>
<path d="M18.2832 14.5209V12.0482C18.8782 12.0482 19.4648 12.0462 20.0506 12.0488C20.356 12.0501 20.668 12.0252 20.9668 12.0744C21.619 12.1821 22.0433 12.7161 22.0164 13.3394C21.9901 13.9509 21.5389 14.4756 20.8985 14.5091C20.0394 14.5544 19.1764 14.5203 18.2839 14.5203L18.2832 14.5209Z"/>
</g>

</symbol><symbol id="bedroom" viewBox="0 0 24 24">
<g clip-path="url(#clip0_122_2005)">
<path d="M12.0119 19.4597C9.01369 19.4597 6.01627 19.4597 3.01806 19.4597C2.71493 19.4597 2.57479 19.5984 2.57479 19.8977C2.57479 19.9752 2.57872 20.0527 2.574 20.1295C2.5677 20.2225 2.55825 20.3155 2.54093 20.4062C2.47637 20.7372 2.15907 21.0023 1.77957 20.9984C1.39849 20.9946 1.08277 20.7116 1.02529 20.3481C1.01191 20.2628 1.00482 20.1752 1.00482 20.0891C1.00403 18.3279 0.992223 16.5659 1.00876 14.8046C1.0182 13.7783 1.39771 12.8853 2.12521 12.1419C2.56691 11.6907 3.09207 11.3698 3.69282 11.1651C4.16522 11.0046 4.65338 10.9558 5.15098 10.9558C9.76246 10.9574 14.3739 10.9535 18.9854 10.9589C20.3365 10.9605 21.4309 11.4969 22.2419 12.5636C22.6403 13.0884 22.8781 13.6845 22.9592 14.3357C22.9867 14.555 22.9985 14.7783 22.9993 15C23.0025 16.7101 23.0017 18.4202 23.0009 20.1302C23.0009 20.3977 22.934 20.6411 22.7104 20.8178C22.4741 21.0046 22.2104 21.0535 21.9293 20.9395C21.66 20.8295 21.49 20.6271 21.4514 20.338C21.4317 20.1922 21.4341 20.0426 21.4301 19.8953C21.4238 19.6574 21.3238 19.5139 21.1239 19.4698C21.0798 19.4597 21.0333 19.4605 20.9876 19.4605C17.9965 19.4605 15.0054 19.4605 12.0135 19.4605L12.0119 19.4597Z"/>
<path d="M11.9025 4C13.8472 4 15.7912 4 17.7351 4C18.3862 4 18.9949 4.14341 19.52 4.53953C20.1956 5.04884 20.59 5.71938 20.6231 6.56124C20.6514 7.27519 20.6388 7.9907 20.642 8.70543C20.6444 9.16589 20.642 9.62636 20.642 10.0868C20.642 10.1279 20.6396 10.1713 20.6286 10.2109C20.5948 10.3357 20.5263 10.3853 20.3971 10.3612C20.2562 10.3349 20.12 10.2783 19.979 10.2628C19.6476 10.2271 19.3153 10.2023 18.9823 10.1853C18.7602 10.1736 18.6917 10.1341 18.6602 9.91938C18.5595 9.23876 17.9194 8.62636 17.1005 8.63566C16.1872 8.64574 15.2739 8.63798 14.3613 8.63798C13.6819 8.63798 13.1016 9.03643 12.8709 9.66434C12.8378 9.75426 12.8252 9.85194 12.8079 9.94651C12.7756 10.1163 12.7119 10.1798 12.5402 10.1822C12.1804 10.186 11.8198 10.186 11.46 10.1822C11.2946 10.1806 11.2293 10.1163 11.1994 9.92791C11.1576 9.66357 11.0537 9.42791 10.8836 9.22093C10.5758 8.84574 10.1774 8.64186 9.68609 8.63953C8.74363 8.63488 7.80118 8.63721 6.85794 8.63876C6.06587 8.63953 5.44623 9.24884 5.34545 9.91783C5.31317 10.1341 5.24782 10.1721 5.02579 10.186C4.6581 10.2101 4.29041 10.2442 3.92351 10.2829C3.81092 10.2946 3.70305 10.3426 3.59125 10.3612C3.47078 10.3806 3.41488 10.3403 3.38103 10.224C3.36764 10.1783 3.36134 10.1295 3.36134 10.0814C3.36055 8.97674 3.3456 7.87209 3.36449 6.76744C3.38418 5.61163 3.92666 4.76202 4.988 4.24806C5.40844 4.04574 5.86431 4 6.3257 4C8.18462 4 10.0435 4 11.9025 4Z"/>
</g>

</symbol><symbol id="buildings" viewBox="0 0 82 82">
<rect x="0.5" y="0.5" width="81" height="81" rx="40.5"/>
<rect x="0.5" y="0.5" width="81" height="81" rx="40.5"/>
<rect x="10.5" y="10.5" width="61" height="61" rx="30.5"/>
<rect x="10.5" y="10.5" width="61" height="61" rx="30.5"/>
<path fill-rule="evenodd" clip-rule="evenodd" d="M25.7002 28.675C25.7002 27.9708 26.271 27.4 26.9752 27.4H44.8252C45.5294 27.4 46.1002 27.9708 46.1002 28.675C46.1002 29.3792 45.5294 29.95 44.8252 29.95H44.4002V53.325C44.4002 54.0292 43.8294 54.6 43.1252 54.6H40.5752C39.871 54.6 39.3002 54.0292 39.3002 53.325V49.075C39.3002 48.3708 38.7294 47.8 38.0252 47.8H33.7752C33.071 47.8 32.5002 48.3708 32.5002 49.075V53.325C32.5002 54.0292 31.9294 54.6 31.2252 54.6H26.9752C26.271 54.6 25.7002 54.0292 25.7002 53.325C25.7002 52.6208 26.271 52.05 26.9752 52.05H27.4002V29.95H26.9752C26.271 29.95 25.7002 29.3792 25.7002 28.675ZM30.8002 33.35C30.8002 32.8806 31.1808 32.5 31.6502 32.5H33.3502C33.8196 32.5 34.2002 32.8806 34.2002 33.35V35.05C34.2002 35.5194 33.8196 35.9 33.3502 35.9H31.6502C31.1808 35.9 30.8002 35.5194 30.8002 35.05V33.35ZM31.6502 39.3C31.1808 39.3 30.8002 39.6806 30.8002 40.15V41.85C30.8002 42.3194 31.1808 42.7 31.6502 42.7H33.3502C33.8196 42.7 34.2002 42.3194 34.2002 41.85V40.15C34.2002 39.6806 33.8196 39.3 33.3502 39.3H31.6502ZM37.6002 33.35C37.6002 32.8806 37.9808 32.5 38.4502 32.5H40.1502C40.6196 32.5 41.0002 32.8806 41.0002 33.35V35.05C41.0002 35.5194 40.6196 35.9 40.1502 35.9H38.4502C37.9808 35.9 37.6002 35.5194 37.6002 35.05V33.35ZM38.4502 39.3C37.9808 39.3 37.6002 39.6806 37.6002 40.15V41.85C37.6002 42.3194 37.9808 42.7 38.4502 42.7H40.1502C40.6196 42.7 41.0002 42.3194 41.0002 41.85V40.15C41.0002 39.6806 40.6196 39.3 40.1502 39.3H38.4502Z"/>
<path fill-rule="evenodd" clip-rule="evenodd" d="M48.2252 34.2C47.521 34.2 46.9502 34.7708 46.9502 35.475V52.9C46.9502 53.8389 47.7113 54.6 48.6502 54.6H55.0252C55.7294 54.6 56.3002 54.0292 56.3002 53.325C56.3002 52.6208 55.7294 52.05 55.0252 52.05H54.6002V36.75H55.0252C55.7294 36.75 56.3002 36.1792 56.3002 35.475C56.3002 34.7708 55.7294 34.2 55.0252 34.2H48.2252ZM49.0752 40.15C49.0752 39.6806 49.4558 39.3 49.9252 39.3H51.6252C52.0946 39.3 52.4752 39.6806 52.4752 40.15V41.85C52.4752 42.3194 52.0946 42.7 51.6252 42.7H49.9252C49.4558 42.7 49.0752 42.3194 49.0752 41.85V40.15ZM49.9252 46.1C49.4558 46.1 49.0752 46.4806 49.0752 46.95V48.65C49.0752 49.1194 49.4558 49.5 49.9252 49.5H51.6252C52.0946 49.5 52.4752 49.1194 52.4752 48.65V46.95C52.4752 46.4806 52.0946 46.1 51.6252 46.1H49.9252Z"/>

</symbol><symbol id="cross" viewBox="0 0 24 24">
<path d="M6 18L18 6M6 6L18 18" stroke-width="1.5" stroke-linecap="round" stroke-linejoin="round"/>
</symbol><symbol id="email" viewBox="0 0 24 24">
<path d="M17 7H18V8C18 8.26522 18.1054 8.51957 18.2929 8.70711C18.4804 8.89464 18.7348 9 19 9C19.2652 9 19.5196 8.89464 19.7071 8.70711C19.8946 8.51957 20 8.26522 20 8V7H21C21.2652 7 21.5196 6.89464 21.7071 6.70711C21.8946 6.51957 22 6.26522 22 6C22 5.73478 21.8946 5.48043 21.7071 5.29289C21.5196 5.10536 21.2652 5 21 5H20V4C20 3.73478 19.8946 3.48043 19.7071 3.29289C19.5196 3.10536 19.2652 3 19 3C18.7348 3 18.4804 3.10536 18.2929 3.29289C18.1054 3.48043 18 3.73478 18 4V5H17C16.7348 5 16.4804 5.10536 16.2929 5.29289C16.1054 5.48043 16 5.73478 16 6C16 6.26522 16.1054 6.51957 16.2929 6.70711C16.4804 6.89464 16.7348 7 17 7ZM21 11C20.7348 11 20.4804 11.1054 20.2929 11.2929C20.1054 11.4804 20 11.7348 20 12V18C20 18.2652 19.8946 18.5196 19.7071 18.7071C19.5196 18.8946 19.2652 19 19 19H5C4.73478 19 4.48043 18.8946 4.29289 18.7071C4.10536 18.5196 4 18.2652 4 18V8.41L9.88 14.3C10.4425 14.8618 11.205 15.1774 12 15.1774C12.795 15.1774 13.5575 14.8618 14.12 14.3L16.59 11.83C16.7783 11.6417 16.8841 11.3863 16.8841 11.12C16.8841 10.8537 16.7783 10.5983 16.59 10.41C16.4017 10.2217 16.1463 10.1159 15.88 10.1159C15.6137 10.1159 15.3583 10.2217 15.17 10.41L12.7 12.88C12.5131 13.0632 12.2618 13.1659 12 13.1659C11.7382 13.1659 11.4869 13.0632 11.3 12.88L5.41 7H13C13.2652 7 13.5196 6.89464 13.7071 6.70711C13.8946 6.51957 14 6.26522 14 6C14 5.73478 13.8946 5.48043 13.7071 5.29289C13.5196 5.10536 13.2652 5 13 5H5C4.20435 5 3.44129 5.31607 2.87868 5.87868C2.31607 6.44129 2 7.20435 2 8V18C2 18.7956 2.31607 19.5587 2.87868 20.1213C3.44129 20.6839 4.20435 21 5 21H19C19.7956 21 20.5587 20.6839 21.1213 20.1213C21.6839 19.5587 22 18.7956 22 18V12C22 11.7348 21.8946 11.4804 21.7071 11.2929C21.5196 11.1054 21.2652 11 21 11Z"/>
</symbol><symbol id="facebook" viewBox="0 0 24 24">
<path d="M15.7442 3.98403H18.0002V0.168036C16.9079 0.0544523 15.8104 -0.00162514 14.7122 3.58369e-05C11.4482 3.58369e-05 9.21622 1.99203 9.21622 5.64003V8.78402H5.53223V13.056H9.21622V24H13.6322V13.056H17.3042L17.8562 8.78402H13.6322V6.06003C13.6322 4.80003 13.9682 3.98403 15.7442 3.98403Z"/>
</symbol><symbol id="four-dots" viewBox="0 0 24 24">
<path d="M3.75 6C3.75 4.75736 4.75736 3.75 6 3.75H8.25C9.49264 3.75 10.5 4.75736 10.5 6V8.25C10.5 9.49264 9.49264 10.5 8.25 10.5H6C4.75736 10.5 3.75 9.49264 3.75 8.25V6Z" stroke-width="1.5" stroke-linecap="round" stroke-linejoin="round"/>
<path d="M3.75 15.75C3.75 14.5074 4.75736 13.5 6 13.5H8.25C9.49264 13.5 10.5 14.5074 10.5 15.75V18C10.5 19.2426 9.49264 20.25 8.25 20.25H6C4.75736 20.25 3.75 19.2426 3.75 18V15.75Z" stroke-width="1.5" stroke-linecap="round" stroke-linejoin="round"/>
<path d="M13.5 6C13.5 4.75736 14.5074 3.75 15.75 3.75H18C19.2426 3.75 20.25 4.75736 20.25 6V8.25C20.25 9.49264 19.2426 10.5 18 10.5H15.75C14.5074 10.5 13.5 9.49264 13.5 8.25V6Z" stroke-width="1.5" stroke-linecap="round" stroke-linejoin="round"/>
<path d="M13.5 15.75C13.5 14.5074 14.5074 13.5 15.75 13.5H18C19.2426 13.5 20.25 14.5074 20.25 15.75V18C20.25 19.2426 19.2426 20.25 18 20.25H15.75C14.5074 20.25 13.5 19.2426 13.5 18V15.75Z" stroke-width="1.5" stroke-linecap="round" stroke-linejoin="round"/>
</symbol><symbol id="home" viewBox="0 0 82 82">
<rect x="0.5" y="0.5" width="81" height="81" rx="40.5"/>
<rect x="0.5" y="0.5" width="81" height="81" rx="40.5"/>
<rect x="10.5" y="10.5" width="61" height="61" rx="30.5"/>
<rect x="10.5" y="10.5" width="61" height="61" rx="30.5"/>
<path d="M28.8937 36.1058C30.8853 38.0975 34.1145 38.0975 36.1061 36.1058C36.3509 35.8611 36.5656 35.5976 36.7502 35.3201C37.6639 36.6941 39.2261 37.5996 40.9999 37.5996C42.7739 37.5996 44.3364 36.6938 45.25 35.3196C45.4347 35.5973 45.6495 35.8609 45.8944 36.1059C47.8861 38.0975 51.1152 38.0975 53.1069 36.1059C55.0986 34.1142 55.0986 30.885 53.1069 28.8934L52.6094 28.3958C51.9718 27.7582 51.107 27.4 50.2052 27.4H31.7953C30.8936 27.4 30.0288 27.7582 29.3911 28.3958L28.8937 28.8933C26.902 30.885 26.902 34.1141 28.8937 36.1058Z"/>
<path d="M29.0999 39.3548C31.5275 40.5591 34.4616 40.3947 36.7509 38.8615C37.9654 39.6741 39.4269 40.1496 40.9999 40.1496C42.573 40.1496 44.0347 39.674 45.2493 38.8612C47.5384 40.3946 50.4723 40.5592 52.8999 39.3552V52.05H53.3249C54.0291 52.05 54.5999 52.6208 54.5999 53.325C54.5999 54.0292 54.0291 54.6 53.3249 54.6H45.6749C44.9707 54.6 44.3999 54.0292 44.3999 53.325V47.375C44.3999 46.6708 43.8291 46.1 43.1249 46.1H38.8749C38.1707 46.1 37.5999 46.6708 37.5999 47.375V53.325C37.5999 54.0292 37.0291 54.6 36.3249 54.6H28.6749C27.9707 54.6 27.3999 54.0292 27.3999 53.325C27.3999 52.6208 27.9707 52.05 28.6749 52.05H29.0999V39.3548Z"/>

</symbol><symbol id="linkedin" viewBox="0 0 24 24">
<path d="M20.41 2.00014H3.47C3.27958 1.9975 3.0905 2.03239 2.91357 2.10282C2.73663 2.17326 2.5753 2.27786 2.4388 2.41065C2.30229 2.54344 2.19328 2.70182 2.11799 2.87675C2.0427 3.05167 2.00261 3.23972 2 3.43014V20.5701C2.00261 20.7606 2.0427 20.9486 2.11799 21.1235C2.19328 21.2985 2.30229 21.4568 2.4388 21.5896C2.5753 21.7224 2.73663 21.827 2.91357 21.8975C3.0905 21.9679 3.27958 22.0028 3.47 22.0001H20.41C20.6004 22.0028 20.7895 21.9679 20.9664 21.8975C21.1434 21.827 21.3047 21.7224 21.4412 21.5896C21.5777 21.4568 21.6867 21.2985 21.762 21.1235C21.8373 20.9486 21.8774 20.7606 21.88 20.5701V3.43014C21.8774 3.23972 21.8373 3.05167 21.762 2.87675C21.6867 2.70182 21.5777 2.54344 21.4412 2.41065C21.3047 2.27786 21.1434 2.17326 20.9664 2.10282C20.7895 2.03239 20.6004 1.9975 20.41 2.00014ZM8.03 18.7401H5.03V9.74014H8.03V18.7401ZM6.53 8.48014C6.11626 8.48014 5.71947 8.31578 5.42691 8.02323C5.13436 7.73067 4.97 7.33388 4.97 6.92014C4.97 6.5064 5.13436 6.10961 5.42691 5.81705C5.71947 5.5245 6.11626 5.36014 6.53 5.36014C6.7497 5.33522 6.97218 5.35699 7.18288 5.42402C7.39357 5.49105 7.58774 5.60183 7.75266 5.7491C7.91757 5.89637 8.04953 6.07682 8.13987 6.27862C8.23022 6.48043 8.27692 6.69904 8.27692 6.92014C8.27692 7.14124 8.23022 7.35985 8.13987 7.56166C8.04953 7.76346 7.91757 7.94391 7.75266 8.09118C7.58774 8.23845 7.39357 8.34923 7.18288 8.41626C6.97218 8.48329 6.7497 8.50505 6.53 8.48014ZM18.85 18.7401H15.85V13.9101C15.85 12.7001 15.42 11.9101 14.33 11.9101C13.9927 11.9126 13.6642 12.0184 13.3888 12.2133C13.1135 12.4082 12.9045 12.6828 12.79 13.0001C12.7117 13.2352 12.6778 13.4827 12.69 13.7301V18.7301H9.69C9.69 18.7301 9.69 10.5501 9.69 9.73014H12.69V11.0001C12.9625 10.5272 13.3589 10.1377 13.8364 9.87334C14.314 9.60902 14.8546 9.47999 15.4 9.50014C17.4 9.50014 18.85 10.7901 18.85 13.5601V18.7401Z"/>
</symbol><symbol id="money" viewBox="0 0 82 82">
<rect x="0.5" y="0.5" width="81" height="81" rx="40.5"/>
<rect x="0.5" y="0.5" width="81" height="81" rx="40.5"/>
<rect x="10.5" y="10.5" width="61" height="61" rx="30.5"/>
<rect x="10.5" y="10.5" width="61" height="61" rx="30.5"/>
<path d="M41 34.625C39.2396 34.625 37.8125 36.0521 37.8125 37.8125C37.8125 39.5729 39.2396 41 41 41C42.7604 41 44.1875 39.5729 44.1875 37.8125C44.1875 36.0521 42.7604 34.625 41 34.625Z"/>
<path fill-rule="evenodd" clip-rule="evenodd" d="M26.125 30.9062C26.125 29.4392 27.3142 28.25 28.7812 28.25H53.2188C54.6858 28.25 55.875 29.4392 55.875 30.9062V44.7188C55.875 46.1858 54.6858 47.375 53.2188 47.375H28.7812C27.3142 47.375 26.125 46.1858 26.125 44.7188V30.9062ZM35.6875 37.8125C35.6875 34.8785 38.066 32.5 41 32.5C43.934 32.5 46.3125 34.8785 46.3125 37.8125C46.3125 40.7465 43.934 43.125 41 43.125C38.066 43.125 35.6875 40.7465 35.6875 37.8125ZM50.5625 36.75C49.9757 36.75 49.5 37.2257 49.5 37.8125V37.8231C49.5 38.4099 49.9757 38.8856 50.5625 38.8856H50.5731C51.1599 38.8856 51.6356 38.4099 51.6356 37.8231V37.8125C51.6356 37.2257 51.1599 36.75 50.5731 36.75H50.5625ZM30.375 37.8125C30.375 37.2257 30.8507 36.75 31.4375 36.75H31.4481C32.0349 36.75 32.5106 37.2257 32.5106 37.8125V37.8231C32.5106 38.4099 32.0349 38.8856 31.4481 38.8856H31.4375C30.8507 38.8856 30.375 38.4099 30.375 37.8231V37.8125Z"/>
<path d="M27.1875 49.5C26.6007 49.5 26.125 49.9757 26.125 50.5625C26.125 51.1493 26.6007 51.625 27.1875 51.625C34.8376 51.625 42.247 52.6481 49.2872 54.5644C50.9738 55.0235 52.6875 53.7738 52.6875 51.9864V50.5625C52.6875 49.9757 52.2118 49.5 51.625 49.5H27.1875Z"/>

</symbol><symbol id="plane" viewBox="0 0 30 30">
<path d="M26.7843 3.22287C26.1593 2.58412 25.2343 2.34787 24.3718 2.59787L4.25928 8.40912C3.34928 8.66162 2.70428 9.38287 2.53053 10.2979C2.35303 11.2304 2.97303 12.4154 3.78303 12.9104L10.0718 16.7504C10.7168 17.1454 11.5493 17.0466 12.083 16.5116L19.2843 9.31037C19.6468 8.93412 20.2468 8.93412 20.6093 9.31037C20.9718 9.67162 20.9718 10.2604 20.6093 10.6354L13.3955 17.8366C12.8605 18.3716 12.7605 19.2016 13.1543 19.8479L16.9968 26.1604C17.4468 26.9091 18.2218 27.3354 19.0718 27.3354C19.1718 27.3354 19.2843 27.3354 19.3843 27.3216C20.3593 27.1979 21.1343 26.5341 21.4218 25.5966L27.3843 5.63537C27.6468 4.78537 27.4093 3.86037 26.7843 3.22287Z"/>
<path opacity="0.4" d="M11.8145 23.9277C12.1795 24.294 12.1795 24.8877 11.8145 25.254L10.107 26.9602C9.92448 27.144 9.68448 27.2352 9.44448 27.2352C9.20448 27.2352 8.96448 27.144 8.78198 26.9602C8.41573 26.594 8.41573 26.0015 8.78198 25.6352L10.4882 23.9277C10.8545 23.5627 11.4482 23.5627 11.8145 23.9277ZM10.8349 19.1927C11.1999 19.559 11.1999 20.1527 10.8349 20.519L9.12736 22.2252C8.94486 22.409 8.70486 22.5002 8.46486 22.5002C8.22486 22.5002 7.98486 22.409 7.80236 22.2252C7.43611 21.859 7.43611 21.2665 7.80236 20.9002L9.50861 19.1927C9.87486 18.8277 10.4686 18.8277 10.8349 19.1927ZM6.13336 17.7022C6.49836 18.0685 6.49836 18.6622 6.13336 19.0285L4.42586 20.7347C4.24336 20.9185 4.00336 21.0097 3.76336 21.0097C3.52336 21.0097 3.28336 20.9185 3.10086 20.7347C2.73461 20.3685 2.73461 19.776 3.10086 19.4097L4.80711 17.7022C5.17336 17.3372 5.76711 17.3372 6.13336 17.7022Z"/>
</symbol><symbol id="star" viewBox="0 0 22 21">
<path d="M9.81193 0.459616C10.2055 -0.153147 11.1011 -0.153147 11.4947 0.459616L14.5337 5.19107C14.6692 5.4019 14.8788 5.55421 15.1212 5.61786L20.5602 7.04604C21.2645 7.23101 21.5413 8.08279 21.0802 8.64646L17.5194 12.9989C17.3607 13.1928 17.2806 13.4392 17.295 13.6894L17.6175 19.3035C17.6592 20.0306 16.9347 20.557 16.2561 20.2926L11.0164 18.2511C10.7829 18.1601 10.5238 18.1601 10.2903 18.2511L5.05057 20.2926C4.37199 20.557 3.64741 20.0306 3.68917 19.3035L4.01163 13.6894C4.02599 13.4392 3.94592 13.1928 3.78725 12.9989L0.226482 8.64646C-0.234667 8.08279 0.0420954 7.23101 0.74649 7.04604L6.18548 5.61786C6.42784 5.55421 6.63748 5.4019 6.7729 5.19107L9.81193 0.459616Z"/>
</symbol><symbol id="sun" viewBox="0 0 82 82">
<rect x="0.5" y="0.5" width="81" height="81" rx="40.5"/>
<rect x="0.5" y="0.5" width="81" height="81" rx="40.5"/>
<rect x="10.5" y="10.5" width="61" height="61" rx="30.5"/>
<rect x="10.5" y="10.5" width="61" height="61" rx="30.5"/>
<path d="M41 27.1875C41.5868 27.1875 42.0625 27.6632 42.0625 28.25V31.4375C42.0625 32.0243 41.5868 32.5 41 32.5C40.4132 32.5 39.9375 32.0243 39.9375 31.4375V28.25C39.9375 27.6632 40.4132 27.1875 41 27.1875Z"/>
<path d="M34.625 41C34.625 37.4792 37.4792 34.625 41 34.625C44.5208 34.625 47.375 37.4792 47.375 41C47.375 44.5208 44.5208 47.375 41 47.375C37.4792 47.375 34.625 44.5208 34.625 41Z"/>
<path d="M50.767 32.7356C51.1819 32.3207 51.1819 31.648 50.767 31.233C50.3521 30.8181 49.6793 30.8181 49.2644 31.233L47.0105 33.4869C46.5955 33.9019 46.5955 34.5746 47.0105 34.9895C47.4254 35.4045 48.0982 35.4045 48.5131 34.9895L50.767 32.7356Z"/>
<path d="M54.8125 41C54.8125 41.5868 54.3368 42.0625 53.75 42.0625H50.5625C49.9757 42.0625 49.5 41.5868 49.5 41C49.5 40.4132 49.9757 39.9375 50.5625 39.9375H53.75C54.3368 39.9375 54.8125 40.4132 54.8125 41Z"/>
<path d="M49.2642 50.7669C49.6792 51.1818 50.3519 51.1818 50.7668 50.7669C51.1818 50.3519 51.1818 49.6792 50.7668 49.2643L48.5129 47.0104C48.098 46.5954 47.4253 46.5954 47.0103 47.0104C46.5954 47.4253 46.5954 48.098 47.0103 48.513L49.2642 50.7669Z"/>
<path d="M41 49.5C41.5868 49.5 42.0625 49.9757 42.0625 50.5625V53.75C42.0625 54.3368 41.5868 54.8125 41 54.8125C40.4132 54.8125 39.9375 54.3368 39.9375 53.75V50.5625C39.9375 49.9757 40.4132 49.5 41 49.5Z"/>
<path d="M34.9898 48.513C35.4047 48.098 35.4047 47.4253 34.9898 47.0104C34.5749 46.5954 33.9021 46.5954 33.4872 47.0104L31.2333 49.2643C30.8184 49.6792 30.8184 50.3519 31.2333 50.7669C31.6482 51.1818 32.321 51.1818 32.7359 50.7669L34.9898 48.513Z"/>
<path d="M32.5 41C32.5 41.5868 32.0243 42.0625 31.4375 42.0625H28.25C27.6632 42.0625 27.1875 41.5868 27.1875 41C27.1875 40.4132 27.6632 39.9375 28.25 39.9375H31.4375C32.0243 39.9375 32.5 40.4132 32.5 41Z"/>
<path d="M33.487 34.9895C33.902 35.4045 34.5747 35.4045 34.9896 34.9895C35.4046 34.5746 35.4046 33.9019 34.9896 33.4869L32.7357 31.233C32.3208 30.8181 31.6481 30.8181 31.2331 31.233C30.8182 31.648 30.8182 32.3207 31.2331 32.7356L33.487 34.9895Z"/>

</symbol><symbol id="twitter" viewBox="0 0 24 24">
<path d="M22 5.79997C21.2483 6.12606 20.4534 6.34163 19.64 6.43997C20.4982 5.92729 21.1413 5.12075 21.45 4.16997C20.6436 4.65003 19.7608 4.98826 18.84 5.16997C18.2245 4.50254 17.405 4.05826 16.5098 3.90682C15.6147 3.75537 14.6945 3.90532 13.8938 4.33315C13.093 4.76099 12.4569 5.4425 12.0852 6.2708C11.7135 7.09911 11.6273 8.02736 11.84 8.90997C10.2094 8.82749 8.61444 8.40292 7.15865 7.66383C5.70287 6.92474 4.41885 5.88766 3.39 4.61997C3.02914 5.25013 2.83952 5.96379 2.84 6.68997C2.83872 7.36435 3.00422 8.02858 3.32176 8.62353C3.63929 9.21848 4.09902 9.72568 4.66 10.1C4.00798 10.0822 3.36989 9.90726 2.8 9.58997V9.63997C2.80489 10.5849 3.13599 11.4991 3.73731 12.2279C4.33864 12.9568 5.17326 13.4556 6.1 13.64C5.74326 13.7485 5.37287 13.8058 5 13.81C4.74189 13.807 4.48442 13.7835 4.23 13.74C4.49391 14.5528 5.00462 15.2631 5.69107 15.7721C6.37753 16.2811 7.20558 16.5635 8.06 16.58C6.6172 17.7152 4.83588 18.3348 3 18.34C2.66574 18.3411 2.33174 18.321 2 18.28C3.87443 19.4902 6.05881 20.1327 8.29 20.13C9.82969 20.146 11.3571 19.855 12.7831 19.274C14.2091 18.6931 15.505 17.8338 16.5952 16.7465C17.6854 15.6591 18.548 14.3654 19.1326 12.9409C19.7172 11.5164 20.012 9.98969 20 8.44997C20 8.27996 20 8.09997 20 7.91997C20.7847 7.33478 21.4615 6.61739 22 5.79997Z"/>
</symbol><symbol id="villa" viewBox="0 0 24 24">
<path fill-rule="evenodd" clip-rule="evenodd" d="M4.8001 19.8V4.20002H4.5001C4.00304 4.20002 3.6001 3.79708 3.6001 3.30002C3.6001 2.80297 4.00304 2.40002 4.5001 2.40002H19.5001C19.9972 2.40002 20.4001 2.80297 20.4001 3.30002C20.4001 3.79708 19.9972 4.20002 19.5001 4.20002H19.2001V19.8H19.5001C19.9972 19.8 20.4001 20.203 20.4001 20.7C20.4001 21.1971 19.9972 21.6 19.5001 21.6H15.3001C14.803 21.6 14.4001 21.1971 14.4001 20.7V17.7C14.4001 17.203 13.9972 16.8 13.5001 16.8H10.5001C10.003 16.8 9.6001 17.203 9.6001 17.7V20.7C9.6001 21.1971 9.19715 21.6 8.7001 21.6H4.5001C4.00304 21.6 3.6001 21.1971 3.6001 20.7C3.6001 20.203 4.00304 19.8 4.5001 19.8H4.8001ZM8.4001 6.60002C8.4001 6.26865 8.66873 6.00002 9.0001 6.00002H10.2001C10.5315 6.00002 10.8001 6.26865 10.8001 6.60002V7.80002C10.8001 8.1314 10.5315 8.40002 10.2001 8.40002H9.0001C8.66873 8.40002 8.4001 8.1314 8.4001 7.80002V6.60002ZM9.0001 10.8C8.66873 10.8 8.4001 11.0687 8.4001 11.4V12.6C8.4001 12.9314 8.66873 13.2 9.0001 13.2H10.2001C10.5315 13.2 10.8001 12.9314 10.8001 12.6V11.4C10.8001 11.0687 10.5315 10.8 10.2001 10.8H9.0001ZM13.2001 6.60002C13.2001 6.26865 13.4687 6.00002 13.8001 6.00002H15.0001C15.3315 6.00002 15.6001 6.26865 15.6001 6.60002V7.80002C15.6001 8.1314 15.3315 8.40002 15.0001 8.40002H13.8001C13.4687 8.40002 13.2001 8.1314 13.2001 7.80002V6.60002ZM13.8001 10.8C13.4687 10.8 13.2001 11.0687 13.2001 11.4V12.6C13.2001 12.9314 13.4687 13.2 13.8001 13.2H15.0001C15.3315 13.2 15.6001 12.9314 15.6001 12.6V11.4C15.6001 11.0687 15.3315 10.8 15.0001 10.8H13.8001Z"/>
</symbol><symbol id="youtube" viewBox="0 0 24 24">
<path d="M23 9.70998C23.0495 8.27864 22.7365 6.858 22.09 5.57998C21.6514 5.05558 21.0427 4.70169 20.37 4.57998C17.5875 4.32751 14.7936 4.22403 12 4.26998C9.21667 4.22194 6.43274 4.32208 3.66003 4.56998C3.11185 4.6697 2.60454 4.92683 2.20003 5.30998C1.30003 6.13998 1.20003 7.55998 1.10003 8.75998C0.954939 10.9175 0.954939 13.0824 1.10003 15.24C1.12896 15.9154 1.22952 16.5858 1.40003 17.24C1.5206 17.745 1.76455 18.2123 2.11003 18.6C2.51729 19.0034 3.03641 19.2752 3.60003 19.38C5.75594 19.6461 7.92824 19.7564 10.1 19.71C13.6 19.76 16.67 19.71 20.3 19.43C20.8775 19.3316 21.4112 19.0595 21.83 18.65C22.11 18.3699 22.3191 18.0271 22.44 17.65C22.7977 16.5526 22.9733 15.4041 22.96 14.25C23 13.69 23 10.31 23 9.70998ZM9.74003 14.85V8.65998L15.66 11.77C14 12.69 11.81 13.73 9.74003 14.85Z"/>
</symbol><symbol id="zap" viewBox="0 0 24 24">
<path d="M3.75 13.5L14.25 2.25L12 10.5H20.25L9.75 21.75L12 13.5H3.75Z" stroke-width="1.5" stroke-linecap="round" stroke-linejoin="round"/>
</symbol></svg>